<?xml version="1.0" encoding="UTF-8"?>
<svg id="Layer_2" data-name="Layer 2" xmlns="http://www.w3.org/2000/svg" viewBox="0 0 2991.86 1080">
  <defs>
    <style>
      .cls-1 {
        fill: #fff;
      }

      .cls-2 {
        fill: #e30005;
      }
    </style>
  </defs>
  <g id="Layer_1-2" data-name="Layer 1">
    <g>
      <g>
        <g>
          <path class="cls-1" d="M435.08,1005.29c-4.74,4.86-10.39,8.16-16.94,9.92,5.97,1.4,10.62,4.27,13.96,8.6,3.34,4.33,5,9.48,5,15.45,0,1.87-.18,3.81-.53,5.79-1.76,10.54-6.79,18.79-15.1,24.76-8.31,5.97-19.08,8.95-32.31,8.95h-61.28l21.95-123.78h59.35c11.24,0,19.96,2.26,26.16,6.76,6.2,4.51,9.31,10.92,9.31,19.23,0,1.99-.18,4.04-.53,6.15-1.29,7.26-4.3,13.32-9.04,18.17ZM402.51,1037.68c0-2.92-.97-5.18-2.9-6.76-1.93-1.58-4.77-2.37-8.52-2.37h-19.84l-3.86,22.65h20.02c8.54,0,13.52-3.69,14.92-11.06.12-.58.18-1.4.18-2.46ZM407.95,990.8c0-5.62-3.69-8.43-11.06-8.43h-17.38l-3.86,21.95h17.38c8.54,0,13.46-3.63,14.75-10.89.11-.58.18-1.46.18-2.63Z"/>
          <path class="cls-1" d="M557.55,954.99l-12.47,71.81c-.35,2.11-.53,4.1-.53,5.97,0,4.68,1.26,8.31,3.77,10.89,2.52,2.58,6.41,3.86,11.68,3.86,6.32,0,11.41-1.81,15.28-5.44,3.86-3.63,6.38-8.72,7.55-15.28l12.64-71.81h34.41l-12.64,71.81c-1.99,11.71-6.03,21.54-12.11,29.5-6.09,7.96-13.52,13.9-22.3,17.82-8.78,3.92-18.38,5.88-28.8,5.88-13.46,0-24.26-3.51-32.39-10.53-8.14-7.02-12.2-17.09-12.2-30.2,0-4.21.41-8.37,1.23-12.47l12.64-71.81h34.24Z"/>
          <path class="cls-1" d="M739.45,954.99l-21.77,123.78h-34.59l21.95-123.78h34.41Z"/>
          <path class="cls-1" d="M832.68,1052.61h38.45l-4.74,26.16h-73.04l21.95-123.78h34.41l-17.03,97.62Z"/>
          <path class="cls-1" d="M1050.93,954.99l-4.92,27.39h-32.83l-17.03,96.39h-34.59l17.03-96.39h-32.66l4.92-27.39h100.08Z"/>
          <path class="cls-1" d="M1304.64,954.99l-4.92,27.39h-32.83l-17.03,96.39h-34.59l17.03-96.39h-32.66l4.92-27.39h100.08Z"/>
          <path class="cls-1" d="M1384,1073.5c-7.96-4.33-14.11-10.42-18.44-18.26-4.33-7.84-6.5-16.86-6.5-27.04,0-14.63,3.07-27.65,9.22-39.07,6.15-11.41,14.75-20.28,25.81-26.6,11.06-6.32,23.73-9.48,38.01-9.48,10.65,0,19.99,2.14,28.01,6.41,8.02,4.27,14.19,10.3,18.52,18.08,4.33,7.79,6.5,16.77,6.5,26.95,0,14.52-3.1,27.51-9.31,38.98-6.21,11.47-14.87,20.43-25.99,26.86-11.12,6.44-23.88,9.66-38.28,9.66-10.42,0-19.61-2.16-27.57-6.5ZM1435.01,1042.6c5.21-3.63,9.19-8.46,11.94-14.49,2.75-6.03,4.13-12.55,4.13-19.58,0-7.49-2.02-13.31-6.06-17.47-4.04-4.15-9.81-6.23-17.29-6.23-6.91,0-12.99,1.79-18.26,5.35-5.27,3.57-9.31,8.34-12.12,14.31-2.81,5.97-4.21,12.53-4.21,19.67s2.05,13.2,6.15,17.47c4.1,4.27,9.95,6.41,17.56,6.41,6.91,0,12.96-1.81,18.17-5.44Z"/>
          <path class="cls-1" d="M1744.73,1005.29c-4.74,4.86-10.39,8.16-16.94,9.92,5.97,1.4,10.62,4.27,13.96,8.6,3.34,4.33,5,9.48,5,15.45,0,1.87-.17,3.81-.53,5.79-1.76,10.54-6.79,18.79-15.1,24.76-8.31,5.97-19.08,8.95-32.31,8.95h-61.28l21.95-123.78h59.35c11.24,0,19.96,2.26,26.16,6.76,6.2,4.51,9.31,10.92,9.31,19.23,0,1.99-.18,4.04-.53,6.15-1.29,7.26-4.3,13.32-9.04,18.17ZM1712.16,1037.68c0-2.92-.96-5.18-2.9-6.76-1.93-1.58-4.77-2.37-8.52-2.37h-19.84l-3.86,22.65h20.02c8.54,0,13.52-3.69,14.92-11.06.11-.58.17-1.4.17-2.46ZM1717.6,990.8c0-5.62-3.69-8.43-11.06-8.43h-17.38l-3.86,21.95h17.38c8.54,0,13.46-3.63,14.75-10.89.12-.58.18-1.46.18-2.63Z"/>
          <path class="cls-1" d="M1863.16,982.2l-3.51,20.54h39.51l-4.74,26.16h-39.51l-4.04,22.47h44.77l-4.74,27.39h-79.36l21.95-123.78h79.19l-4.74,27.22h-44.77Z"/>
          <path class="cls-1" d="M2072.18,1071.13c-8.72-5.91-13.08-14.54-13.08-25.9,0-.94.11-2.57.35-4.92h36.35c-.35,3.98.47,7.08,2.46,9.31,1.99,2.22,5.03,3.34,9.13,3.34,3.39,0,6.11-.76,8.16-2.28,2.05-1.52,3.07-3.69,3.07-6.5,0-3.28-1.49-5.97-4.48-8.08-2.99-2.11-7.81-4.56-14.49-7.37-6.67-2.81-12.18-5.47-16.5-7.99-4.33-2.52-8.08-5.97-11.24-10.36-3.16-4.39-4.74-9.86-4.74-16.42,0-8.54,2.11-15.89,6.32-22.04,4.21-6.15,10.1-10.83,17.65-14.05,7.55-3.22,16.18-4.83,25.9-4.83,8.78,0,16.56,1.38,23.35,4.13,6.79,2.75,12.09,6.7,15.89,11.85,3.8,5.15,5.71,11.24,5.71,18.26,0,1.87-.06,3.28-.17,4.21h-37.05c.11-.58.17-1.4.17-2.46,0-2.81-.88-5-2.63-6.58-1.76-1.58-4.16-2.37-7.2-2.37s-5.71.79-7.64,2.37c-1.93,1.58-2.9,3.78-2.9,6.58,0,3.05,1.49,5.65,4.48,7.81,2.98,2.17,7.64,4.71,13.96,7.64,6.79,3.16,12.38,6.12,16.77,8.87,4.39,2.75,8.17,6.41,11.33,10.97,3.16,4.57,4.74,10.18,4.74,16.86,0,7.37-1.99,14.02-5.97,19.93-3.98,5.91-9.66,10.53-17.03,13.87-7.37,3.34-16.1,5-26.16,5-14.28,0-25.78-2.95-34.5-8.87Z"/>
          <path class="cls-1" d="M2274.19,982.2l-3.51,20.54h39.51l-4.74,26.16h-39.51l-4.04,22.47h44.77l-4.74,27.39h-79.36l21.95-123.78h79.19l-4.74,27.22h-44.77Z"/>
          <path class="cls-1" d="M2426.59,982.2l-3.51,20.54h39.51l-4.74,26.16h-39.51l-4.04,22.47h44.77l-4.74,27.39h-79.36l21.95-123.78h79.19l-4.74,27.22h-44.77Z"/>
          <path class="cls-1" d="M2642.2,1078.77h-34.59l-33.36-69.18-12.29,69.18h-34.59l21.95-123.78h34.41l33.54,70.06,12.29-70.06h34.41l-21.77,123.78Z"/>
        </g>
        <rect class="cls-2" y="1000.14" width="247.53" height="32.78"/>
        <rect class="cls-2" x="2744.33" y="1000.14" width="247.53" height="32.78"/>
      </g>
      <g>
        <path class="cls-1" d="M2808.6,727.52c-47.76,37.13-105.85,66.88-170.4,66.95h-771.71l166.77-506.86h293.92s-6.41,19.05-6.41,19.05h289.68c19.78-.02,39.93-6.87,54.81-16.85,23.45-15.72,32.35-45.84,26.18-73.66-4.04-18.18-18.28-25.45-36.52-28.51h-588.57L2128.35.45h697.03c88.24,4.61,163.68,50.94,166.41,142.03.78,25.94-4.76,49.9-11.65,74.24-21.54,76.13-69.12,136.93-146.34,155.45,23.62,7.52,44.13,13.69,60.35,30.3,24.88,25.49,32.46,61.85,25.47,95.25l-37.23,120.73c-13.49,43.73-36.16,79.83-73.78,109.09ZM2634.13,502.16c-1.31-19.04-17.58-27.87-36.23-32.31l-330.94-.35-42.66,128.84,328.52.2c54.24-1.42,84.76-46.15,81.31-96.38Z"/>
        <path class="cls-2" d="M1377.95,487.13l54.99-165.28,471.52.05-113.18,341.82c-25.11,77.06-96.21,125.58-179.26,130.74h-590.55c-41.57-.04-82.66-19.8-112.89-47.05-37.78-34.05-46.35-95.76-30.81-142.8l137.79-415.93c25.75-77.98,100.34-156.77,178.72-177.53,37.83-10.02,72.9-10.39,112.89-11.15l703.75.38-62.27,188.3h-577.44c-42.6,3.58-75.54,25.18-88.64,64.63l-92.14,277.67c-5.38,16.22-8.2,34.8,5.1,49.84,7.33,8.29,22.96,11.46,34.7,12.64l289.21-.24,38.79-105.38-180.29-.7Z"/>
        <polygon class="cls-1" points="447.95 794.47 135.6 794.47 335.34 188.68 0 188.68 61.94 .43 1014.85 .45 952.92 188.68 647.74 188.68 447.95 794.47"/>
      </g>
    </g>
  </g>
</svg>